<?xml version="1.0" encoding="UTF-8" standalone="no"?><svg xmlns="http://www.w3.org/2000/svg" xmlns:xlink="http://www.w3.org/1999/xlink" contentStyleType="text/css" height="216px" preserveAspectRatio="none" style="width:2831px;height:216px;background:#FFFFFF;" version="1.1" viewBox="0 0 2831 216" width="2831px" zoomAndPan="magnify"><defs/><g><!--MD5=[0f05b381ce972810648735ab0813e8dd]
cluster Project--><g id="cluster_Project"><rect height="88" rx="2.5" ry="2.5" style="stroke:#181818;stroke-width:1.0;fill:none;" width="536" x="7" y="115"/><text fill="#000000" font-family="sans-serif" font-size="14" font-weight="bold" lengthAdjust="spacing" textLength="50" x="250" y="131.5332">Project</text></g><!--MD5=[26cb6e6fbe12f2f8bd870b020e66ca34]
cluster Tailoring--><g id="cluster_Tailoring"><rect height="103" rx="2.5" ry="2.5" style="stroke:#181818;stroke-width:1.0;fill:none;" width="1321" x="567" y="107.5"/><text fill="#000000" font-family="sans-serif" font-size="14" font-weight="bold" lengthAdjust="spacing" textLength="61" x="1197" y="124.0332">Tailoring</text></g><!--MD5=[27081f92bbbb32f9ba8a449ff0a4771e]
cluster Documents--><g id="cluster_Documents"><rect height="96" rx="2.5" ry="2.5" style="stroke:#181818;stroke-width:1.0;fill:none;" width="425" x="1912" y="111"/><text fill="#000000" font-family="sans-serif" font-size="14" font-weight="bold" lengthAdjust="spacing" textLength="79" x="2085" y="127.5332">Documents</text></g><!--MD5=[7187234368723bcb0cb93467f2c0a2b8]
cluster File Management--><g id="cluster_File Management"><rect height="84" rx="2.5" ry="2.5" style="stroke:#181818;stroke-width:1.0;fill:none;" width="464" x="2361" y="117"/><text fill="#000000" font-family="sans-serif" font-size="14" font-weight="bold" lengthAdjust="spacing" textLength="121" x="2532.5" y="133.5332">File Management</text></g><g id="elem_create project"><ellipse cx="456.8041" cy="168.8608" fill="#F1F1F1" rx="69.8041" ry="16.3608" style="stroke:#181818;stroke-width:0.5;"/><text fill="#000000" font-family="sans-serif" font-size="14" lengthAdjust="spacing" textLength="87" x="410.3041" y="173.3774">create project</text></g><g id="elem_initial tailoring"><ellipse cx="281.957" cy="168.7914" fill="#F1F1F1" rx="69.457" ry="16.2914" style="stroke:#181818;stroke-width:0.5;"/><text fill="#000000" font-family="sans-serif" font-size="14" lengthAdjust="spacing" textLength="86" x="235.957" y="173.308">initial tailoring</text></g><g id="elem_add new tailoring"><ellipse cx="100.1203" cy="168.8241" fill="#F1F1F1" rx="77.1203" ry="17.8241" style="stroke:#181818;stroke-width:0.5;"/><text fill="#000000" font-family="sans-serif" font-size="14" lengthAdjust="spacing" textLength="107" x="44.2783" y="173.1856">add new tailoring</text></g><g id="elem_edit tailoring"><ellipse cx="1804.9254" cy="169.1851" fill="#F1F1F1" rx="66.4254" ry="15.6851" style="stroke:#181818;stroke-width:0.5;"/><text fill="#000000" font-family="sans-serif" font-size="14" lengthAdjust="spacing" textLength="77" x="1763.4254" y="173.7017">edit tailoring</text></g><g id="elem_de-/select requirement"><ellipse cx="1612.1965" cy="169.2393" fill="#F1F1F1" rx="91.6965" ry="20.7393" style="stroke:#181818;stroke-width:0.5;"/><text fill="#000000" font-family="sans-serif" font-size="14" lengthAdjust="spacing" textLength="142" x="1541.1965" y="172.9678">de-/select requirement</text></g><g id="elem_edit requirement text"><ellipse cx="1399.1163" cy="169.1233" fill="#F1F1F1" rx="86.1163" ry="19.6233" style="stroke:#181818;stroke-width:0.5;"/><text fill="#000000" font-family="sans-serif" font-size="14" lengthAdjust="spacing" textLength="129" x="1334.6163" y="172.8518">edit requirement text</text></g><g id="elem_add new requirement"><ellipse cx="1189.8193" cy="168.9639" fill="#F1F1F1" rx="87.8193" ry="19.9639" style="stroke:#181818;stroke-width:0.5;"/><text fill="#000000" font-family="sans-serif" font-size="14" lengthAdjust="spacing" textLength="133" x="1123.3193" y="172.6924">add new requirement</text></g><g id="elem_compare initial/manual tailoring"><ellipse cx="950.9736" cy="168.9947" fill="#F1F1F1" rx="115.4736" ry="25.4947" style="stroke:#181818;stroke-width:0.5;"/><text fill="#000000" font-family="sans-serif" font-size="14" lengthAdjust="spacing" textLength="195" x="853.4736" y="172.7232">compare initial/manual tailoring</text></g><g id="elem_import tailoring requirements"><ellipse cx="692.1128" cy="169.1226" fill="#F1F1F1" rx="108.6128" ry="24.1226" style="stroke:#181818;stroke-width:0.5;"/><text fill="#000000" font-family="sans-serif" font-size="14" lengthAdjust="spacing" textLength="180" x="602.1128" y="172.8511">import tailoring requirements</text></g><g id="elem_edit document signatures"><ellipse cx="2222.1681" cy="169.2336" fill="#F1F1F1" rx="99.1681" ry="22.2336" style="stroke:#181818;stroke-width:0.5;"/><text fill="#000000" font-family="sans-serif" font-size="14" lengthAdjust="spacing" textLength="159" x="2142.6681" y="172.9621">edit document signatures</text></g><g id="elem_create documents"><ellipse cx="2007.9775" cy="168.7955" fill="#F1F1F1" rx="79.4775" ry="18.2955" style="stroke:#181818;stroke-width:0.5;"/><text fill="#000000" font-family="sans-serif" font-size="14" lengthAdjust="spacing" textLength="113" x="1950.256" y="172.8709">create documents</text></g><g id="elem_upload file"><ellipse cx="2750.952" cy="169.0671" fill="#F1F1F1" rx="57.952" ry="15.5671" style="stroke:#181818;stroke-width:0.5;"/><text fill="#000000" font-family="sans-serif" font-size="14" lengthAdjust="spacing" textLength="65" x="2715.452" y="173.5837">upload file</text></g><g id="elem_download file"><ellipse cx="2590.0887" cy="169.0177" fill="#F1F1F1" rx="68.0887" ry="16.0177" style="stroke:#181818;stroke-width:0.5;"/><text fill="#000000" font-family="sans-serif" font-size="14" lengthAdjust="spacing" textLength="82" x="2546.0887" y="173.5343">download file</text></g><g id="elem_delete file"><ellipse cx="2431.9968" cy="169.0429" fill="#F1F1F1" rx="54.9968" ry="15.5429" style="stroke:#181818;stroke-width:0.5;"/><text fill="#000000" font-family="sans-serif" font-size="14" lengthAdjust="spacing" textLength="61" x="2398.4968" y="173.5595">delete file</text></g><!--MD5=[ce71c397873d3e555d4d5ffb6329fbdd]
entity anwender--><g id="elem_anwender"><ellipse cx="1505" cy="14" fill="#F1F1F1" rx="8" ry="8" style="stroke:#181818;stroke-width:0.5;"/><path d="M1505,22 L1505,49 M1492,30 L1518,30 M1505,49 L1492,64 M1505,49 L1518,64 " fill="none" style="stroke:#181818;stroke-width:0.5;"/><text fill="#000000" font-family="sans-serif" font-size="14" lengthAdjust="spacing" textLength="29" x="1490.5" y="80.0332">User</text></g><!--MD5=[87c4a9733078e11dd1ffbe60a59822b7]
link anwender to create project--><g id="link_anwender_create project"><path d="M1490.46,45.36 C1386.04,44.48 749.49,41.6 567,99.5 C533.63,110.09 500.18,133.12 479.08,149.55 " fill="none" id="anwender-to-create project" style="stroke:#181818;stroke-width:1.0;"/><polygon fill="#181818" points="475.03,152.74,484.5731,150.305,478.9551,149.6427,479.6174,144.0248,475.03,152.74" style="stroke:#181818;stroke-width:1.0;"/></g><!--MD5=[e31484061b31613830673e759f7721b8]
link anwender to initial tailoring--><g id="link_anwender_initial tailoring"><path d="M1490.19,45.66 C1364.62,47.12 479.96,58.8 370,99.5 C341.98,109.87 315.76,132.63 299.36,149.08 " fill="none" id="anwender-to-initial tailoring" style="stroke:#181818;stroke-width:1.0;"/><polygon fill="#181818" points="295.81,152.69,304.9662,149.0618,299.3096,149.1189,299.2525,143.4624,295.81,152.69" style="stroke:#181818;stroke-width:1.0;"/></g><!--MD5=[4fd6aae88bd456a5e95511ddc55495b9]
link anwender to add new tailoring--><g id="link_anwender_add new tailoring"><path d="M1490.14,45.59 C1353.86,46.53 323.54,55.05 195,99.5 C166.24,109.45 138.63,131.18 120.66,147.52 " fill="none" id="anwender-to-add new tailoring" style="stroke:#181818;stroke-width:1.0;"/><polygon fill="#181818" points="116.76,151.12,126.0874,147.9577,120.4351,147.7298,120.663,142.0775,116.76,151.12" style="stroke:#181818;stroke-width:1.0;"/></g><!--MD5=[53354aa8e1729f6b222c01283c2869b4]
link anwender to edit tailoring--><g id="link_anwender_edit tailoring"><path d="M1519.65,46.94 C1555.67,50.92 1650.67,64.26 1721,99.5 C1746.75,112.4 1771.73,134.36 1787.66,149.93 " fill="none" id="anwender-to-edit tailoring" style="stroke:#181818;stroke-width:1.0;"/><polygon fill="#181818" points="1791.51,153.74,1787.9374,144.5619,1787.9602,150.2188,1782.3034,150.2416,1791.51,153.74" style="stroke:#181818;stroke-width:1.0;"/></g><!--MD5=[16d7fcfe2c0b664886792abb44f8e174]
link anwender to de-/select requirement--><g id="link_anwender_de-/select requirement"><path d="M1519.65,62.28 C1538.27,83.58 1570.49,120.47 1591.52,144.56 " fill="none" id="anwender-to-de-/select requirement" style="stroke:#181818;stroke-width:1.0;"/><polygon fill="#181818" points="1595.06,148.6,1592.164,139.1865,1591.7756,144.83,1586.1321,144.4416,1595.06,148.6" style="stroke:#181818;stroke-width:1.0;"/></g><!--MD5=[05aede3dbc5bf0fe7e257bfe4b4deb42]
link anwender to edit requirement text--><g id="link_anwender_edit requirement text"><path d="M1490.48,62.28 C1471.83,83.83 1439.38,121.33 1418.56,145.39 " fill="none" id="anwender-to-edit requirement text" style="stroke:#181818;stroke-width:1.0;"/><polygon fill="#181818" points="1415.07,149.43,1423.9811,145.2357,1418.3392,145.6468,1417.9281,140.005,1415.07,149.43" style="stroke:#181818;stroke-width:1.0;"/></g><!--MD5=[cabf428dc40aa2cee8ce77a4f9366830]
link anwender to add new requirement--><g id="link_anwender_add new requirement"><path d="M1490.28,47.64 C1455.38,53.05 1365.33,69.1 1296,99.5 C1267.71,111.91 1238.44,131.42 1217.84,146.45 " fill="none" id="anwender-to-add new requirement" style="stroke:#181818;stroke-width:1.0;"/><polygon fill="#181818" points="1213.58,149.59,1223.2021,147.4889,1217.6107,146.6313,1218.4682,141.0399,1213.58,149.59" style="stroke:#181818;stroke-width:1.0;"/></g><!--MD5=[73c3b3963bac7b811c0f48db00e75302]
link anwender to compare initial/manual tailoring--><g id="link_anwender_compare initial/manual tailoring"><path d="M1490.48,45.58 C1435.92,46.24 1238.45,52 1085,99.5 C1052.32,109.62 1018.02,127.3 992.3,142.17 " fill="none" id="anwender-to-compare initial/manual tailoring" style="stroke:#181818;stroke-width:1.0;"/><polygon fill="#181818" points="987.93,144.72,997.7199,143.6443,992.2499,142.2024,993.6918,136.7324,987.93,144.72" style="stroke:#181818;stroke-width:1.0;"/></g><!--MD5=[4332655d557e383e46d4de86a5f5af51]
link anwender to import tailoring requirements--><g id="link_anwender_import tailoring requirements"><path d="M1490.41,45.82 C1403.25,47.86 950.48,60.22 818,99.5 C785.64,109.09 752.22,127.74 727.94,143.15 " fill="none" id="anwender-to-import tailoring requirements" style="stroke:#181818;stroke-width:1.0;"/><polygon fill="#181818" points="723.51,145.99,733.2436,144.4879,727.7159,143.2862,728.9176,137.7585,723.51,145.99" style="stroke:#181818;stroke-width:1.0;"/></g><!--MD5=[a57425cc623a16e4590a63577629e154]
link anwender to edit document signatures--><g id="link_anwender_edit document signatures"><path d="M1519.54,45.95 C1599.98,48.56 1990.82,62.96 2105,99.5 C2136.45,109.56 2168.56,129.16 2191.17,144.83 " fill="none" id="anwender-to-edit document signatures" style="stroke:#181818;stroke-width:1.0;"/><polygon fill="#181818" points="2195.27,147.71,2190.1927,139.2707,2191.1745,144.8417,2185.6035,145.8235,2195.27,147.71" style="stroke:#181818;stroke-width:1.0;"/></g><!--MD5=[8b15a4baeba66784a2255f3aecf61b5b]
link anwender to create documents--><g id="link_anwender_create documents"><path d="M1519.72,45.6 C1571.62,46.37 1750.43,52.48 1888,99.5 C1921.98,111.11 1957.25,132.57 1980.68,148.38 " fill="none" id="anwender-to-create documents" style="stroke:#181818;stroke-width:1.0;"/><polygon fill="#181818" points="1984.92,151.26,1979.723,142.894,1980.784,148.4504,1975.2276,149.5115,1984.92,151.26" style="stroke:#181818;stroke-width:1.0;"/></g><!--MD5=[efe95c4a13b4d41c57a6d5af5bc30e1c]
link anwender to upload file--><g id="link_anwender_upload file"><path d="M1519.89,45.58 C1648.15,46.3 2564.15,53.11 2676,99.5 C2701.38,110.02 2723.64,133.11 2737.19,149.57 " fill="none" id="anwender-to-upload file" style="stroke:#181818;stroke-width:1.0;"/><polygon fill="#181818" points="2740.44,153.6,2737.8902,144.0869,2737.2957,149.7124,2731.6701,149.1179,2740.44,153.6" style="stroke:#181818;stroke-width:1.0;"/></g><!--MD5=[55f4e17e4b5bbcfa917e2a4d08953cdb]
link anwender to download file--><g id="link_anwender_download file"><path d="M1519.85,45.75 C1636.92,47.81 2409.02,62.7 2505,99.5 C2532.24,109.95 2557.46,132.6 2573.24,149 " fill="none" id="anwender-to-download file" style="stroke:#181818;stroke-width:1.0;"/><polygon fill="#181818" points="2577.04,153.03,2573.7652,143.7415,2573.6056,149.3961,2567.951,149.2365,2577.04,153.03" style="stroke:#181818;stroke-width:1.0;"/></g><!--MD5=[8d7fb386e449a4d87c51dfc4fb49697e]
link anwender to delete file--><g id="link_anwender_delete file"><path d="M1519.78,45.35 C1618.07,44.53 2178.12,42.45 2337,99.5 C2367.25,110.36 2396.35,133.92 2414.2,150.36 " fill="none" id="anwender-to-delete file" style="stroke:#181818;stroke-width:1.0;"/><polygon fill="#181818" points="2418.05,153.96,2414.2187,144.8869,2414.4019,150.5408,2408.748,150.7239,2418.05,153.96" style="stroke:#181818;stroke-width:1.0;"/></g><!--MD5=[aa586284076b681ece42e55d3eddb67f]
@startuml usecases.png

'  left to right direction
  skinparam packageStyle rect
  
  actor "User" as anwender

  rectangle "Project" {
    anwender - -> (create project)
    anwender - -> (initial tailoring)
    anwender - -> (add new tailoring)
  }
  
  rectangle "Tailoring" {
    anwender - -> (edit tailoring)
    anwender - -> (de-/select requirement)
    anwender - -> (edit requirement text)
    anwender - -> (add new requirement)
    anwender - -> (compare initial/manual tailoring)
    anwender - -> (import tailoring requirements)
  }

  rectangle "Documents" {
    anwender - -> (edit document signatures)
    anwender - -> (create documents)
  }

  rectangle "File Management" {
    anwender - -> (upload file)
    anwender - -> (download file)
    anwender - -> (delete file)
  }

@enduml

@startuml usecases.png

  skinparam packageStyle rect
  
  actor "User" as anwender

  rectangle "Project" {
    anwender - -> (create project)
    anwender - -> (initial tailoring)
    anwender - -> (add new tailoring)
  }
  
  rectangle "Tailoring" {
    anwender - -> (edit tailoring)
    anwender - -> (de-/select requirement)
    anwender - -> (edit requirement text)
    anwender - -> (add new requirement)
    anwender - -> (compare initial/manual tailoring)
    anwender - -> (import tailoring requirements)
  }

  rectangle "Documents" {
    anwender - -> (edit document signatures)
    anwender - -> (create documents)
  }

  rectangle "File Management" {
    anwender - -> (upload file)
    anwender - -> (download file)
    anwender - -> (delete file)
  }

@enduml

PlantUML version 1.2022.6(Tue Jun 21 19:34:49 CEST 2022)
(GPL source distribution)
Java Runtime: OpenJDK Runtime Environment
JVM: OpenJDK 64-Bit Server VM
Default Encoding: Cp1252
Language: de
Country: DE
--></g></svg>