<?xml version="1.0" encoding="UTF-8" standalone="no"?><svg xmlns="http://www.w3.org/2000/svg" xmlns:xlink="http://www.w3.org/1999/xlink" contentStyleType="text/css" height="1176px" preserveAspectRatio="none" style="width:348px;height:1176px;background:#FFFFFF;" version="1.1" viewBox="0 0 348 1176" width="348px" zoomAndPan="magnify"><defs/><g><!--MD5=[0f05b381ce972810648735ab0813e8dd]
cluster Project--><g id="cluster_Project"><rect height="225" rx="2.5" ry="2.5" style="stroke:#181818;stroke-width:1.0;fill:none;" width="186" x="117.5" y="7"/><text fill="#000000" font-family="sans-serif" font-size="14" font-weight="bold" lengthAdjust="spacing" textLength="50" x="185.5" y="23.5332">Project</text></g><!--MD5=[26cb6e6fbe12f2f8bd870b020e66ca34]
cluster Tailoring--><g id="cluster_Tailoring"><rect height="479" rx="2.5" ry="2.5" style="stroke:#181818;stroke-width:1.0;fill:none;" width="263" x="79" y="256"/><text fill="#000000" font-family="sans-serif" font-size="14" font-weight="bold" lengthAdjust="spacing" textLength="61" x="180" y="272.5332">Tailoring</text></g><!--MD5=[27081f92bbbb32f9ba8a449ff0a4771e]
cluster Documents--><g id="cluster_Documents"><rect height="169" rx="2.5" ry="2.5" style="stroke:#181818;stroke-width:1.0;fill:none;" width="230" x="95.5" y="759"/><text fill="#000000" font-family="sans-serif" font-size="14" font-weight="bold" lengthAdjust="spacing" textLength="79" x="171" y="775.5332">Documents</text></g><!--MD5=[7187234368723bcb0cb93467f2c0a2b8]
cluster File Management--><g id="cluster_File Management"><rect height="218" rx="2.5" ry="2.5" style="stroke:#181818;stroke-width:1.0;fill:none;" width="168" x="126.5" y="952"/><text fill="#000000" font-family="sans-serif" font-size="14" font-weight="bold" lengthAdjust="spacing" textLength="121" x="150" y="968.5332">File Management</text></g><g id="elem_create project"><ellipse cx="210.3041" cy="59.8608" fill="#F1F1F1" rx="69.8041" ry="16.3608" style="stroke:#181818;stroke-width:0.5;"/><text fill="#000000" font-family="sans-serif" font-size="14" lengthAdjust="spacing" textLength="87" x="163.8041" y="64.3774">create project</text></g><g id="elem_initial tailoring"><ellipse cx="210.457" cy="127.7914" fill="#F1F1F1" rx="69.457" ry="16.2914" style="stroke:#181818;stroke-width:0.5;"/><text fill="#000000" font-family="sans-serif" font-size="14" lengthAdjust="spacing" textLength="86" x="164.457" y="132.308">initial tailoring</text></g><g id="elem_add new tailoring"><ellipse cx="210.6203" cy="197.8241" fill="#F1F1F1" rx="77.1203" ry="17.8241" style="stroke:#181818;stroke-width:0.5;"/><text fill="#000000" font-family="sans-serif" font-size="14" lengthAdjust="spacing" textLength="107" x="154.7783" y="202.1856">add new tailoring</text></g><g id="elem_edit tailoring"><ellipse cx="210.4254" cy="308.1851" fill="#F1F1F1" rx="66.4254" ry="15.6851" style="stroke:#181818;stroke-width:0.5;"/><text fill="#000000" font-family="sans-serif" font-size="14" lengthAdjust="spacing" textLength="77" x="168.9254" y="312.7017">edit tailoring</text></g><g id="elem_de-/select requirement"><ellipse cx="210.6965" cy="379.2393" fill="#F1F1F1" rx="91.6965" ry="20.7393" style="stroke:#181818;stroke-width:0.5;"/><text fill="#000000" font-family="sans-serif" font-size="14" lengthAdjust="spacing" textLength="142" x="139.6965" y="382.9678">de-/select requirement</text></g><g id="elem_edit requirement text"><ellipse cx="210.6163" cy="454.1233" fill="#F1F1F1" rx="86.1163" ry="19.6233" style="stroke:#181818;stroke-width:0.5;"/><text fill="#000000" font-family="sans-serif" font-size="14" lengthAdjust="spacing" textLength="129" x="146.1163" y="457.8518">edit requirement text</text></g><g id="elem_add new requirement"><ellipse cx="210.3193" cy="528.9639" fill="#F1F1F1" rx="87.8193" ry="19.9639" style="stroke:#181818;stroke-width:0.5;"/><text fill="#000000" font-family="sans-serif" font-size="14" lengthAdjust="spacing" textLength="133" x="143.8193" y="532.6924">add new requirement</text></g><g id="elem_compare initial/manual tailoring"><ellipse cx="210.4736" cy="609.9947" fill="#F1F1F1" rx="115.4736" ry="25.4947" style="stroke:#181818;stroke-width:0.5;"/><text fill="#000000" font-family="sans-serif" font-size="14" lengthAdjust="spacing" textLength="195" x="112.9736" y="613.7232">compare initial/manual tailoring</text></g><g id="elem_import tailoring requirements"><ellipse cx="210.6128" cy="695.1226" fill="#F1F1F1" rx="108.6128" ry="24.1226" style="stroke:#181818;stroke-width:0.5;"/><text fill="#000000" font-family="sans-serif" font-size="14" lengthAdjust="spacing" textLength="180" x="120.6128" y="698.8511">import tailoring requirements</text></g><g id="elem_edit document signatures"><ellipse cx="210.6681" cy="817.2336" fill="#F1F1F1" rx="99.1681" ry="22.2336" style="stroke:#181818;stroke-width:0.5;"/><text fill="#000000" font-family="sans-serif" font-size="14" lengthAdjust="spacing" textLength="159" x="131.1681" y="820.9621">edit document signatures</text></g><g id="elem_create documents"><ellipse cx="210.4775" cy="892.7955" fill="#F1F1F1" rx="79.4775" ry="18.2955" style="stroke:#181818;stroke-width:0.5;"/><text fill="#000000" font-family="sans-serif" font-size="14" lengthAdjust="spacing" textLength="113" x="152.756" y="896.8709">create documents</text></g><g id="elem_upload file"><ellipse cx="210.452" cy="1004.0671" fill="#F1F1F1" rx="57.952" ry="15.5671" style="stroke:#181818;stroke-width:0.5;"/><text fill="#000000" font-family="sans-serif" font-size="14" lengthAdjust="spacing" textLength="65" x="174.952" y="1008.5837">upload file</text></g><g id="elem_download file"><ellipse cx="210.5887" cy="1071.0177" fill="#F1F1F1" rx="68.0887" ry="16.0177" style="stroke:#181818;stroke-width:0.5;"/><text fill="#000000" font-family="sans-serif" font-size="14" lengthAdjust="spacing" textLength="82" x="166.5887" y="1075.5343">download file</text></g><g id="elem_delete file"><ellipse cx="210.4968" cy="1138.0429" fill="#F1F1F1" rx="54.9968" ry="15.5429" style="stroke:#181818;stroke-width:0.5;"/><text fill="#000000" font-family="sans-serif" font-size="14" lengthAdjust="spacing" textLength="61" x="176.9968" y="1142.5595">delete file</text></g><!--MD5=[ce71c397873d3e555d4d5ffb6329fbdd]
entity anwender--><g id="elem_anwender"><ellipse cx="20.5" cy="539.5" fill="#F1F1F1" rx="8" ry="8" style="stroke:#181818;stroke-width:0.5;"/><path d="M20.5,547.5 L20.5,574.5 M7.5,555.5 L33.5,555.5 M20.5,574.5 L7.5,589.5 M20.5,574.5 L33.5,589.5 " fill="none" style="stroke:#181818;stroke-width:0.5;"/><text fill="#000000" font-family="sans-serif" font-size="14" lengthAdjust="spacing" textLength="29" x="6" y="605.5332">User</text></g><!--MD5=[87c4a9733078e11dd1ffbe60a59822b7]
link anwender to create project--><g id="link_anwender_create project"><path d="M23.02,530.68 C27.57,422.57 42.51,126.69 71,94 C87.1,75.53 111.45,66.26 135.26,61.83 " fill="none" id="anwender-to-create project" style="stroke:#181818;stroke-width:1.0;"/><polygon fill="#181818" points="140.33,60.96,130.7845,58.5343,135.4015,61.8028,132.1331,66.4199,140.33,60.96" style="stroke:#181818;stroke-width:1.0;"/></g><!--MD5=[e31484061b31613830673e759f7721b8]
link anwender to initial tailoring--><g id="link_anwender_initial tailoring"><path d="M20.8,530.73 C20,439.33 23.13,215.99 71,162 C87.33,143.58 111.87,134.34 135.78,129.93 " fill="none" id="anwender-to-initial tailoring" style="stroke:#181818;stroke-width:1.0;"/><polygon fill="#181818" points="140.86,129.06,131.3145,126.6343,135.9315,129.9028,132.6631,134.5199,140.86,129.06" style="stroke:#181818;stroke-width:1.0;"/></g><!--MD5=[4fd6aae88bd456a5e95511ddc55495b9]
link anwender to add new tailoring--><g id="link_anwender_add new tailoring"><path d="M23.94,530.86 C28.98,460.57 42.55,316.5 71,276 C91.93,246.21 128.07,226.4 158.19,214.21 " fill="none" id="anwender-to-add new tailoring" style="stroke:#181818;stroke-width:1.0;"/><polygon fill="#181818" points="162.97,212.32,153.1292,211.9225,158.3227,214.1646,156.0806,219.3582,162.97,212.32" style="stroke:#181818;stroke-width:1.0;"/></g><!--MD5=[53354aa8e1729f6b222c01283c2869b4]
link anwender to edit tailoring--><g id="link_anwender_edit tailoring"><path d="M24.98,530.77 C30.93,472.61 45.03,367.52 71,341 C88.68,322.95 114.32,314.05 138.75,309.87 " fill="none" id="anwender-to-edit tailoring" style="stroke:#181818;stroke-width:1.0;"/><polygon fill="#181818" points="143.95,309.05,134.4336,306.5125,139.012,309.8349,135.6896,314.4133,143.95,309.05" style="stroke:#181818;stroke-width:1.0;"/></g><!--MD5=[16d7fcfe2c0b664886792abb44f8e174]
link anwender to de-/select requirement--><g id="link_anwender_de-/select requirement"><path d="M23.97,530.97 C28.25,496.36 39.82,446.8 71,417 C85,403.61 103.26,394.85 121.91,389.14 " fill="none" id="anwender-to-de-/select requirement" style="stroke:#181818;stroke-width:1.0;"/><polygon fill="#181818" points="127.17,387.61,117.41,386.29,122.37,389.01,119.65,393.97,127.17,387.61" style="stroke:#181818;stroke-width:1.0;"/></g><!--MD5=[05aede3dbc5bf0fe7e257bfe4b4deb42]
link anwender to edit requirement text--><g id="link_anwender_edit requirement text"><path d="M35.13,536.97 C43.33,520.92 55.25,502.63 71,491 C88.05,478.41 109.09,470.1 129.57,464.62 " fill="none" id="anwender-to-edit requirement text" style="stroke:#181818;stroke-width:1.0;"/><polygon fill="#181818" points="134.48,463.35,124.7682,461.7128,129.6369,464.5929,126.7568,469.4617,134.48,463.35" style="stroke:#181818;stroke-width:1.0;"/></g><!--MD5=[cabf428dc40aa2cee8ce77a4f9366830]
link anwender to add new requirement--><g id="link_anwender_add new requirement"><path d="M35.02,567.05 C57.1,562.24 102.33,552.37 141.2,543.89 " fill="none" id="anwender-to-add new requirement" style="stroke:#181818;stroke-width:1.0;"/><polygon fill="#181818" points="146.4,542.76,136.7521,540.7807,141.5161,543.831,138.4657,548.595,146.4,542.76" style="stroke:#181818;stroke-width:1.0;"/></g><!--MD5=[73c3b3963bac7b811c0f48db00e75302]
link anwender to compare initial/manual tailoring--><g id="link_anwender_compare initial/manual tailoring"><path d="M35.02,572.88 C53.48,576.8 88.11,584.17 121.69,591.32 " fill="none" id="anwender-to-compare initial/manual tailoring" style="stroke:#181818;stroke-width:1.0;"/><polygon fill="#181818" points="126.64,592.37,118.6733,586.5794,121.7502,591.3263,117.0033,594.4031,126.64,592.37" style="stroke:#181818;stroke-width:1.0;"/></g><!--MD5=[4332655d557e383e46d4de86a5f5af51]
link anwender to import tailoring requirements--><g id="link_anwender_import tailoring requirements"><path d="M35.14,604.88 C43.27,621.58 55.14,640.6 71,653 C85.29,664.18 102.54,672.39 119.94,678.42 " fill="none" id="anwender-to-import tailoring requirements" style="stroke:#181818;stroke-width:1.0;"/><polygon fill="#181818" points="124.85,680.07,117.6008,673.403,120.1123,678.4717,115.0436,680.9833,124.85,680.07" style="stroke:#181818;stroke-width:1.0;"/></g><!--MD5=[a57425cc623a16e4590a63577629e154]
link anwender to edit document signatures--><g id="link_anwender_edit document signatures"><path d="M25.1,609.04 C30.16,645.02 42.25,698.25 71,735 C92.41,762.37 125.7,782.5 154.27,795.96 " fill="none" id="anwender-to-edit document signatures" style="stroke:#181818;stroke-width:1.0;"/><polygon fill="#181818" points="158.82,798.06,152.329,790.6528,154.2815,795.962,148.9722,797.9144,158.82,798.06" style="stroke:#181818;stroke-width:1.0;"/></g><!--MD5=[8b15a4baeba66784a2255f3aecf61b5b]
link anwender to create documents--><g id="link_anwender_create documents"><path d="M23.17,609.08 C26.96,678.76 38.53,820.48 71,856 C85.85,872.24 106.96,881.68 128.24,887.07 " fill="none" id="anwender-to-create documents" style="stroke:#181818;stroke-width:1.0;"/><polygon fill="#181818" points="133.35,888.29,125.5387,882.2914,128.4894,887.1177,123.663,890.0684,133.35,888.29" style="stroke:#181818;stroke-width:1.0;"/></g><!--MD5=[efe95c4a13b4d41c57a6d5af5bc30e1c]
link anwender to upload file--><g id="link_anwender_upload file"><path d="M22.56,609.23 C25.45,691.13 35.81,876.91 71,928 C93,959.95 132.97,979.79 164.33,991.15 " fill="none" id="anwender-to-upload file" style="stroke:#181818;stroke-width:1.0;"/><polygon fill="#181818" points="169.29,992.91,162.144,986.1325,164.5774,991.2392,159.4707,993.6726,169.29,992.91" style="stroke:#181818;stroke-width:1.0;"/></g><!--MD5=[55f4e17e4b5bbcfa917e2a4d08953cdb]
link anwender to download file--><g id="link_anwender_download file"><path d="M23.11,609.34 C27.83,716.04 43.08,1005.03 71,1037 C87.57,1055.98 112.85,1065.24 137.3,1069.51 " fill="none" id="anwender-to-download file" style="stroke:#181818;stroke-width:1.0;"/><polygon fill="#181818" points="142.5,1070.35,134.2572,1064.9597,137.5646,1069.5489,132.9754,1072.8563,142.5,1070.35" style="stroke:#181818;stroke-width:1.0;"/></g><!--MD5=[8d7fb386e449a4d87c51dfc4fb49697e]
link anwender to delete file--><g id="link_anwender_delete file"><path d="M22.54,609 C26.01,725.74 38.83,1066.66 71,1104 C90.4,1126.51 122.05,1135.39 150.21,1138.47 " fill="none" id="anwender-to-delete file" style="stroke:#181818;stroke-width:1.0;"/><polygon fill="#181818" points="155.42,1138.98,146.8516,1134.1238,150.4437,1138.4938,146.0737,1142.0859,155.42,1138.98" style="stroke:#181818;stroke-width:1.0;"/></g><!--MD5=[fa9e629982578e2f3f0a269e5cffa7d1]
@startuml usecases.png

  left to right direction
  skinparam packageStyle rect
  
  actor "User" as anwender

  rectangle "Project" {
    anwender - -> (create project)
    anwender - -> (initial tailoring)
    anwender - -> (add new tailoring)
  }

  rectangle "Tailoring" {
    anwender - -> (edit tailoring)
    anwender - -> (de-/select requirement)
    anwender - -> (edit requirement text)
    anwender - -> (add new requirement)
    anwender - -> (compare initial/manual tailoring)
    anwender - -> (import tailoring requirements)
  }

  rectangle "Documents" {
    anwender - -> (edit document signatures)
    anwender - -> (create documents)
  }

  rectangle "File Management" {
    anwender - -> (upload file)
    anwender - -> (download file)
    anwender - -> (delete file)
  }

@enduml

PlantUML version 1.2022.6(Tue Jun 21 19:34:49 CEST 2022)
(GPL source distribution)
Java Runtime: OpenJDK Runtime Environment
JVM: OpenJDK 64-Bit Server VM
Default Encoding: Cp1252
Language: de
Country: DE
--></g></svg>